<svg width="884" height="632" viewBox="0 0 884 632" fill="none" xmlns="http://www.w3.org/2000/svg">
<path d="M348.829 233.24C348.379 233.67 347.979 234.03 347.599 234.42C333.699 248.82 319.689 263.12 305.959 277.68C301.059 282.88 295.849 288.18 292.499 294.37C284.719 308.77 287.869 322.64 297.389 335.17C307.279 348.2 320.589 357 335.209 363.87C357.719 374.44 381.579 379.83 406.289 381.64C433.509 383.63 460.059 380.22 484.919 368.76C510.589 356.93 527.479 337.95 529.029 308.2C529.779 293.7 525.979 280.38 518.009 268.38C510.309 256.79 499.889 247.9 488.219 240.46C463.789 224.9 437.169 213.5 411.649 200C397.269 192.39 382.929 184.62 369.119 176.03C359.069 169.77 350.069 161.85 343.709 151.58C335.839 138.88 334.769 125.57 340.809 111.78C344.759 102.77 351.519 96.3999 359.559 91.0799C367.969 85.5099 376.239 79.7299 384.569 74.0399C384.419 73.7099 384.259 73.3899 384.109 73.0599C383.409 73.0299 382.689 72.8599 382.019 72.9799C364.479 76.1499 347.649 81.1899 332.399 90.8599C313.559 102.81 301.949 119.47 299.149 141.64C297.199 157.09 300.359 171.61 309.089 184.83C319.259 200.21 333.249 211.41 349.009 220.13C376.659 235.42 404.829 249.77 432.729 264.62C448.009 272.75 463.209 281.1 474.439 294.8C484.069 306.56 487.069 319.9 482.359 334.48C478.219 347.3 469.229 356.17 457.339 361.89C443.309 368.64 428.339 370.42 412.839 369.32C392.239 367.85 373.689 361.11 357.929 347.81C344.229 336.26 335.809 321.72 336.079 303.12C336.259 290.31 341.539 279.53 349.389 269.89C356.379 261.31 363.759 253.05 371.009 244.59C363.779 240.88 356.459 237.14 348.829 233.24Z" fill="#103454"/>
<path d="M379.74 167.28C377.81 147.48 380.51 129.55 391.93 113.73C403.25 98.06 418.08 87.3 437.14 83.43C469.84 76.78 504.26 90.57 520.71 122.89C530.1 141.35 531.32 160.74 524.84 180.45C518.36 200.15 504.93 214.09 486.76 224.52C493.94 227.91 498.43 234.41 505.57 236.23C508.21 234.53 510.55 233.01 512.89 231.5C514.83 233.25 516.85 234.65 518.29 236.5C519.71 238.33 520.51 240.63 521.64 242.68C522.11 243.52 522.66 244.36 523.32 245.05C529.68 251.6 536.07 258.12 542.48 264.62C547.21 269.42 551.84 274.34 556.79 278.9C562.15 283.83 570.65 283.4 575.35 278.32C580.21 273.07 580.26 264.29 575.41 259.31C573.52 257.37 571.55 255.51 569.6 253.63C561.14 245.48 552.75 237.25 544.16 229.25C541.41 226.69 538.26 224.47 535.01 222.58C529.99 219.66 528.97 216.46 532.22 211.74C548.81 187.67 552.56 161.17 546.94 133C544.95 123.05 540.8 113.87 535.19 105.6C550.4 89.97 565.43 74.51 580.68 58.83C586.92 66.97 593.02 74.95 599.36 83.23C604.97 55.42 610.51 27.97 616.16 0C588.49 7.68 561.47 15.18 533.73 22.88C543.22 28.5 551.99 33.69 561.73 39.45C546.12 54.4 531.15 68.73 516.04 83.2C515.83 83.05 515.22 82.61 514.62 82.16C499.57 70.74 482.68 63.55 463.9 61.68C440.14 59.31 418.21 64.85 398.39 78.48C374.86 94.66 361.94 117.24 357.78 145.15C357.6 146.35 358.02 148.07 358.83 148.92C364.07 154.41 369.45 159.78 374.92 165.04C375.94 166.02 377.59 166.32 379.74 167.28Z" fill="#103454"/>
<path d="M455.25 90.999C454.74 90.789 454.55 90.639 454.35 90.629C424.43 89.049 396.6 109.389 389.31 138.439C388.14 143.129 388.08 148.099 387.62 152.949C387.46 154.679 388.48 155.789 390.21 155.309C391.31 155.009 392.75 154.169 393.08 153.239C393.71 151.439 393.58 149.379 393.91 147.459C398.57 120.639 420 100.519 444.56 97.199C448.18 96.709 451.83 96.459 455.76 96.069C455.57 94.189 455.4 92.519 455.25 90.999Z" fill="#103454"/>
<path d="M0.480469 524.409L9.69047 505.349C18.2005 510.629 31.1305 514.2 42.8305 514.2C55.5905 514.2 60.3705 510.969 60.3705 505.859C60.3705 490.889 2.78047 506.2 2.78047 469.62C2.78047 452.26 19.0805 440.02 46.9005 440.02C60.0105 440.02 74.5405 442.91 83.5805 448.02L74.3705 466.909C64.9805 461.809 55.5905 460.099 46.9005 460.099C34.5005 460.099 29.1805 463.839 29.1805 468.609C29.1805 484.259 86.7705 469.12 86.7705 505.19C86.7705 522.2 70.2905 534.279 41.7605 534.279C25.6405 534.269 9.34047 530.019 0.480469 524.409Z" fill="black"/>
<path d="M100.41 487.15C100.41 459.59 122.56 440.02 153.57 440.02C173.59 440.02 189.36 448.36 196.27 463.33L174.83 474.39C169.69 465.71 162.07 461.799 153.39 461.799C139.39 461.799 128.41 471.16 128.41 487.15C128.41 503.14 139.4 512.5 153.39 512.5C162.07 512.5 169.69 508.759 174.83 499.909L196.27 511.14C189.36 525.77 173.59 534.279 153.57 534.279C122.56 534.269 100.41 514.71 100.41 487.15Z" fill="black"/>
<path d="M207.6 487.15C207.6 459.59 229.75 440.02 260.05 440.02C290.35 440.02 312.32 459.59 312.32 487.15C312.32 514.71 290.35 534.279 260.05 534.279C229.75 534.269 207.6 514.71 207.6 487.15ZM284.33 487.15C284.33 471.33 273.88 461.799 260.05 461.799C246.23 461.799 235.6 471.33 235.6 487.15C235.6 502.97 246.23 512.5 260.05 512.5C273.87 512.5 284.33 502.97 284.33 487.15Z" fill="black"/>
<path d="M393.651 440.02V464.52C391.351 464.35 389.581 464.18 387.451 464.18C372.211 464.18 362.111 472.18 362.111 489.7V532.919H334.471V441.38H360.871V453.46C367.601 444.61 378.941 440.02 393.651 440.02Z" fill="black"/>
<path d="M505.811 494.63H433.691C436.351 506.03 446.451 513 460.981 513C471.081 513 478.351 510.11 484.901 504.15L499.611 519.46C490.751 529.16 477.461 534.26 460.271 534.26C427.311 534.26 405.871 514.35 405.871 487.13C405.871 459.74 427.661 440 456.731 440C484.731 440 506.341 458.03 506.341 487.47C506.341 489.53 505.991 492.42 505.811 494.63ZM433.341 479.15H480.301C478.351 467.58 469.311 460.09 456.911 460.09C444.321 460.09 435.291 467.41 433.341 479.15Z" fill="black"/>
<path d="M548.151 407.02V532.919H527.951V407.02H548.151Z" fill="black"/>
<path d="M666.33 489.87H591.2C591.55 499.51 594.33 506.66 599.53 511.31C604.73 515.96 611.16 518.29 618.84 518.29C625.57 518.29 631.27 516.65 635.94 513.36C640.6 510.07 643.47 505.7 644.53 500.26H666.14C664.84 506.84 662.12 512.68 657.99 517.78C653.85 522.88 648.48 526.88 641.87 529.78C635.25 532.67 627.87 534.12 619.72 534.12C610.27 534.12 601.91 532.19 594.65 528.33C587.39 524.48 581.68 518.92 577.55 511.66C573.41 504.4 571.35 495.84 571.35 485.97C571.35 476.22 573.42 467.71 577.55 460.45C581.68 453.19 587.39 447.63 594.65 443.78C601.91 439.93 610.27 438 619.72 438C629.29 438 637.64 439.9 644.79 443.7C651.94 447.5 657.43 452.72 661.27 459.35C665.11 465.99 667.03 473.39 667.03 481.55C667.04 484.71 666.8 487.49 666.33 489.87ZM643.38 465.63C640.96 461.49 637.65 458.43 633.46 456.44C629.27 454.46 624.69 453.46 619.73 453.46C611.81 453.46 605.2 455.79 599.89 460.44C594.57 465.09 591.68 471.95 591.21 481.03H646.67C646.9 474.9 645.8 469.77 643.38 465.63Z" fill="black"/>
<path d="M772.11 448.191C778.96 455.221 782.39 465.261 782.39 478.301V532.911H762.19V480.341C762.19 471.951 759.94 465.451 755.46 460.861C750.97 456.271 744.83 453.971 737.03 453.971C729 453.971 722.56 456.441 717.72 461.371C712.88 466.301 710.45 473.531 710.45 483.061V532.911H690.25V439.171H710.45V459.761C713.05 452.731 717.42 447.281 723.56 443.431C729.7 439.581 736.79 437.641 744.82 437.641C756.16 437.641 765.25 441.161 772.11 448.191Z" fill="black"/>
<path d="M869.29 446.401C876.2 452.011 880.42 459.531 881.96 468.941H862.82C861.99 463.841 859.72 459.731 856 456.611C852.28 453.491 847.35 451.931 841.21 451.931C836.13 451.931 832.2 453.091 829.43 455.421C826.65 457.751 825.27 460.891 825.27 464.861C825.27 467.811 826.27 470.191 828.28 472.011C830.29 473.831 832.8 475.241 835.81 476.261C838.82 477.281 843.1 478.411 848.66 479.661C855.98 481.251 861.92 482.891 866.47 484.591C871.02 486.291 874.91 488.991 878.16 492.671C881.41 496.361 883.03 501.381 883.03 507.731C883.03 515.561 879.93 521.911 873.73 526.781C867.53 531.661 859.17 534.101 848.66 534.101C836.49 534.101 826.66 531.381 819.16 525.931C811.66 520.491 807.14 512.891 805.6 503.131H825.27C825.86 508.231 828.22 512.381 832.36 515.551C836.49 518.731 841.93 520.311 848.66 520.311C853.5 520.311 857.31 519.091 860.09 516.651C862.87 514.211 864.25 511.121 864.25 507.381C864.25 504.091 863.19 501.481 861.06 499.551C858.93 497.621 856.28 496.121 853.09 495.041C849.9 493.961 845.53 492.861 839.98 491.721C832.89 490.131 827.13 488.551 822.7 486.961C818.27 485.371 814.49 482.791 811.36 479.221C808.23 475.651 806.67 470.801 806.67 464.671C806.67 456.731 809.77 450.291 815.97 445.361C822.17 440.431 830.76 437.961 841.75 437.961C853.19 437.981 862.38 440.791 869.29 446.401Z" fill="black"/>
<path d="M0.480469 524.409L9.69047 505.349C18.2005 510.629 31.1305 514.2 42.8305 514.2C55.5905 514.2 60.3705 510.969 60.3705 505.859C60.3705 490.889 2.78047 506.2 2.78047 469.62C2.78047 452.26 19.0805 440.02 46.9005 440.02C60.0105 440.02 74.5405 442.91 83.5805 448.02L74.3705 466.909C64.9805 461.809 55.5905 460.099 46.9005 460.099C34.5005 460.099 29.1805 463.839 29.1805 468.609C29.1805 484.259 86.7705 469.12 86.7705 505.19C86.7705 522.2 70.2905 534.279 41.7605 534.279C25.6405 534.269 9.34047 530.019 0.480469 524.409Z" fill="#103454"/>
<path d="M100.41 487.15C100.41 459.59 122.56 440.02 153.57 440.02C173.59 440.02 189.36 448.36 196.27 463.33L174.83 474.39C169.69 465.71 162.07 461.799 153.39 461.799C139.39 461.799 128.41 471.16 128.41 487.15C128.41 503.14 139.4 512.5 153.39 512.5C162.07 512.5 169.69 508.759 174.83 499.909L196.27 511.14C189.36 525.77 173.59 534.279 153.57 534.279C122.56 534.269 100.41 514.71 100.41 487.15Z" fill="#103454"/>
<path d="M207.6 487.15C207.6 459.59 229.75 440.02 260.05 440.02C290.35 440.02 312.32 459.59 312.32 487.15C312.32 514.71 290.35 534.279 260.05 534.279C229.75 534.269 207.6 514.71 207.6 487.15ZM284.33 487.15C284.33 471.33 273.88 461.799 260.05 461.799C246.23 461.799 235.6 471.33 235.6 487.15C235.6 502.97 246.23 512.5 260.05 512.5C273.87 512.5 284.33 502.97 284.33 487.15Z" fill="#103454"/>
<path d="M393.651 440.02V464.52C391.351 464.35 389.581 464.18 387.451 464.18C372.211 464.18 362.111 472.18 362.111 489.7V532.919H334.471V441.38H360.871V453.46C367.601 444.61 378.941 440.02 393.651 440.02Z" fill="#103454"/>
<path d="M505.811 494.63H433.691C436.351 506.03 446.451 513 460.981 513C471.081 513 478.351 510.11 484.901 504.15L499.611 519.46C490.751 529.16 477.461 534.26 460.271 534.26C427.311 534.26 405.871 514.35 405.871 487.13C405.871 459.74 427.661 440 456.731 440C484.731 440 506.341 458.03 506.341 487.47C506.341 489.53 505.991 492.42 505.811 494.63ZM433.341 479.15H480.301C478.351 467.58 469.311 460.09 456.911 460.09C444.321 460.09 435.291 467.41 433.341 479.15Z" fill="#103454"/>
<path d="M548.151 407.02V532.919H527.951V407.02H548.151Z" fill="#103454"/>
<path d="M666.33 489.87H591.2C591.55 499.51 594.33 506.66 599.53 511.31C604.73 515.96 611.16 518.29 618.84 518.29C625.57 518.29 631.27 516.65 635.94 513.36C640.6 510.07 643.47 505.7 644.53 500.26H666.14C664.84 506.84 662.12 512.68 657.99 517.78C653.85 522.88 648.48 526.88 641.87 529.78C635.25 532.67 627.87 534.12 619.72 534.12C610.27 534.12 601.91 532.19 594.65 528.33C587.39 524.48 581.68 518.92 577.55 511.66C573.41 504.4 571.35 495.84 571.35 485.97C571.35 476.22 573.42 467.71 577.55 460.45C581.68 453.19 587.39 447.63 594.65 443.78C601.91 439.93 610.27 438 619.72 438C629.29 438 637.64 439.9 644.79 443.7C651.94 447.5 657.43 452.72 661.27 459.35C665.11 465.99 667.03 473.39 667.03 481.55C667.04 484.71 666.8 487.49 666.33 489.87ZM643.38 465.63C640.96 461.49 637.65 458.43 633.46 456.44C629.27 454.46 624.69 453.46 619.73 453.46C611.81 453.46 605.2 455.79 599.89 460.44C594.57 465.09 591.68 471.95 591.21 481.03H646.67C646.9 474.9 645.8 469.77 643.38 465.63Z" fill="#103454"/>
<path d="M772.11 448.191C778.96 455.221 782.39 465.261 782.39 478.301V532.911H762.19V480.341C762.19 471.951 759.94 465.451 755.46 460.861C750.97 456.271 744.83 453.971 737.03 453.971C729 453.971 722.56 456.441 717.72 461.371C712.88 466.301 710.45 473.531 710.45 483.061V532.911H690.25V439.171H710.45V459.761C713.05 452.731 717.42 447.281 723.56 443.431C729.7 439.581 736.79 437.641 744.82 437.641C756.16 437.641 765.25 441.161 772.11 448.191Z" fill="#103454"/>
<path d="M869.29 446.401C876.2 452.011 880.42 459.531 881.96 468.941H862.82C861.99 463.841 859.72 459.731 856 456.611C852.28 453.491 847.35 451.931 841.21 451.931C836.13 451.931 832.2 453.091 829.43 455.421C826.65 457.751 825.27 460.891 825.27 464.861C825.27 467.811 826.27 470.191 828.28 472.011C830.29 473.831 832.8 475.241 835.81 476.261C838.82 477.281 843.1 478.411 848.66 479.661C855.98 481.251 861.92 482.891 866.47 484.591C871.02 486.291 874.91 488.991 878.16 492.671C881.41 496.361 883.03 501.381 883.03 507.731C883.03 515.561 879.93 521.911 873.73 526.781C867.53 531.661 859.17 534.101 848.66 534.101C836.49 534.101 826.66 531.381 819.16 525.931C811.66 520.491 807.14 512.891 805.6 503.131H825.27C825.86 508.231 828.22 512.381 832.36 515.551C836.49 518.731 841.93 520.311 848.66 520.311C853.5 520.311 857.31 519.091 860.09 516.651C862.87 514.211 864.25 511.121 864.25 507.381C864.25 504.091 863.19 501.481 861.06 499.551C858.93 497.621 856.28 496.121 853.09 495.041C849.9 493.961 845.53 492.861 839.98 491.721C832.89 490.131 827.13 488.551 822.7 486.961C818.27 485.371 814.49 482.791 811.36 479.221C808.23 475.651 806.67 470.801 806.67 464.671C806.67 456.731 809.77 450.291 815.97 445.361C822.17 440.431 830.76 437.961 841.75 437.961C853.19 437.981 862.38 440.791 869.29 446.401Z" fill="#103454"/>
<path d="M22.83 582.812C25.31 584.912 26.82 587.712 27.37 591.232H20.51C20.21 589.322 19.4 587.792 18.06 586.622C16.73 585.462 14.96 584.872 12.76 584.872C10.94 584.872 9.53 585.302 8.54 586.172C7.54 587.042 7.05 588.212 7.05 589.702C7.05 590.802 7.41 591.692 8.13 592.372C8.85 593.052 9.74999 593.582 10.83 593.962C11.91 594.342 13.44 594.762 15.43 595.232C18.05 595.822 20.18 596.442 21.81 597.072C23.44 597.702 24.84 598.712 26 600.092C27.16 601.472 27.75 603.342 27.75 605.712C27.75 608.632 26.64 611.002 24.42 612.822C22.2 614.642 19.2 615.552 15.43 615.552C11.07 615.552 7.54 614.532 4.86 612.502C2.17 610.472 0.55 607.632 0 603.992H7.05C7.26 605.902 8.11 607.442 9.59 608.632C11.07 609.822 13.02 610.412 15.43 610.412C17.17 610.412 18.53 609.962 19.53 609.042C20.52 608.132 21.02 606.982 21.02 605.582C21.02 604.352 20.64 603.382 19.88 602.662C19.12 601.942 18.17 601.382 17.02 600.982C15.88 600.582 14.31 600.162 12.32 599.742C9.78 599.152 7.71 598.552 6.13 597.962C4.55 597.372 3.19 596.402 2.07 595.072C0.95 593.742 0.389999 591.932 0.389999 589.642C0.389999 586.682 1.49999 584.272 3.71999 582.432C5.93999 580.592 9.02 579.672 12.96 579.672C17.06 579.662 20.35 580.712 22.83 582.812Z" fill="#080908"/>
<path d="M36.8403 566.901C37.6903 566.101 38.8103 565.691 40.2103 565.691C41.6103 565.691 42.7403 566.091 43.6103 566.901C44.4803 567.701 44.9103 568.721 44.9103 569.951C44.9103 571.181 44.4703 572.171 43.6103 572.931C42.7403 573.691 41.6103 574.071 40.2103 574.071C38.8103 574.071 37.6903 573.691 36.8403 572.931C35.9903 572.171 35.5703 571.171 35.5703 569.951C35.5703 568.721 35.9903 567.701 36.8403 566.901ZM43.8203 580.111V615.111H36.5803V580.111H43.8203Z" fill="#080908"/>
<path d="M107.88 583.483C110.36 586.113 111.6 589.853 111.6 594.723V615.113H104.36V595.483C104.36 592.433 103.6 590.073 102.07 588.403C100.55 586.733 98.4499 585.893 95.7799 585.893C92.9399 585.893 90.6899 586.793 89.0199 588.593C87.3499 590.393 86.5099 593.033 86.5099 596.503V615.113H79.2699V595.483C79.2699 592.433 78.5099 590.073 76.9799 588.403C75.4599 586.733 73.3599 585.893 70.6899 585.893C67.8499 585.893 65.5999 586.793 63.9199 588.593C62.2499 590.393 61.4099 593.033 61.4099 596.503V615.113H54.1699V580.113H61.4099V587.413C62.2999 584.873 63.7799 582.923 65.8599 581.573C67.9299 580.223 70.3699 579.543 73.1599 579.543C76.0799 579.543 78.6099 580.263 80.7499 581.703C82.8899 583.143 84.4399 585.213 85.4199 587.923C86.4399 585.303 88.0699 583.243 90.3099 581.763C92.5499 580.283 95.0899 579.543 97.9299 579.543C102.09 579.543 105.4 580.853 107.88 583.483Z" fill="#080908"/>
<path d="M149.861 581.82C152.251 583.26 154.131 585.33 155.481 588.05C156.841 590.76 157.511 593.94 157.511 597.58C157.511 601.26 156.831 604.46 155.481 607.17C154.121 609.88 152.251 611.95 149.861 613.4C147.471 614.84 144.751 615.56 141.701 615.56C138.521 615.56 135.811 614.78 133.571 613.21C131.321 611.64 129.761 609.57 128.871 606.98V631.75H121.631V580.11H128.871V588.24C129.761 585.66 131.331 583.58 133.571 582.01C135.811 580.44 138.521 579.66 141.701 579.66C144.751 579.66 147.471 580.38 149.861 581.82ZM134.021 587.45C132.411 588.4 131.141 589.76 130.211 591.51C129.281 593.27 128.811 595.29 128.811 597.58C128.811 599.91 129.281 601.94 130.211 603.68C131.141 605.42 132.411 606.76 134.021 607.71C135.631 608.66 137.451 609.14 139.481 609.14C142.701 609.14 145.281 608.11 147.231 606.06C149.181 604.01 150.151 601.18 150.151 597.58C150.151 594.02 149.181 591.21 147.231 589.13C145.281 587.06 142.701 586.02 139.481 586.02C137.451 586.02 135.631 586.49 134.021 587.45Z" fill="#080908"/>
<path d="M173.33 568.102V615.102H166.09V568.102H173.33Z" fill="#080908"/>
<path d="M215.95 599.04H189.02C189.15 602.64 190.14 605.31 192.01 607.04C193.87 608.78 196.18 609.65 198.93 609.65C201.34 609.65 203.39 609.04 205.06 607.81C206.73 606.58 207.76 604.95 208.14 602.92H215.89C215.42 605.38 214.45 607.56 212.97 609.46C211.49 611.37 209.56 612.86 207.19 613.94C204.82 615.02 202.17 615.56 199.25 615.56C195.86 615.56 192.87 614.84 190.26 613.4C187.66 611.96 185.61 609.89 184.13 607.17C182.65 604.46 181.91 601.26 181.91 597.58C181.91 593.94 182.65 590.76 184.13 588.05C185.61 585.34 187.66 583.27 190.26 581.82C192.86 580.38 195.86 579.66 199.25 579.66C202.68 579.66 205.68 580.37 208.24 581.79C210.8 583.21 212.77 585.16 214.15 587.63C215.52 590.11 216.21 592.87 216.21 595.92C216.21 597.11 216.12 598.15 215.95 599.04ZM207.73 589.99C206.86 588.44 205.68 587.3 204.17 586.56C202.67 585.82 201.03 585.45 199.25 585.45C196.41 585.45 194.04 586.32 192.14 588.05C190.23 589.79 189.2 592.35 189.03 595.73H208.91C208.99 593.45 208.59 591.53 207.73 589.99Z" fill="#080908"/>
<path d="M279.85 582.01C282.09 583.58 283.68 585.65 284.61 588.24V580.11H291.85V615.11H284.61V606.98C283.68 609.56 282.09 611.64 279.85 613.21C277.6 614.78 274.9 615.56 271.72 615.56C268.67 615.56 265.95 614.84 263.56 613.4C261.17 611.96 259.29 609.89 257.94 607.17C256.58 604.46 255.91 601.26 255.91 597.58C255.91 593.94 256.59 590.76 257.94 588.05C259.3 585.34 261.17 583.27 263.56 581.82C265.95 580.38 268.67 579.66 271.72 579.66C274.89 579.66 277.6 580.45 279.85 582.01ZM266.22 589.1C264.29 591.16 263.33 593.98 263.33 597.58C263.33 601.18 264.29 604.01 266.22 606.06C268.15 608.11 270.72 609.14 273.94 609.14C275.97 609.14 277.79 608.66 279.4 607.71C281.01 606.76 282.28 605.41 283.21 603.68C284.14 601.94 284.61 599.91 284.61 597.58C284.61 595.29 284.14 593.27 283.21 591.51C282.28 589.75 281.01 588.4 279.4 587.45C277.79 586.5 275.97 586.02 273.94 586.02C270.72 586.02 268.15 587.04 266.22 589.1Z" fill="#080908"/>
<path d="M328.939 583.251C331.899 585.641 333.749 588.891 334.469 593.001H326.779C326.359 590.801 325.329 589.071 323.699 587.821C322.069 586.571 320.029 585.951 317.569 585.951C314.779 585.951 312.449 586.941 310.579 588.901C308.719 590.871 307.789 593.761 307.789 597.571C307.789 601.381 308.719 604.281 310.579 606.271C312.439 608.261 314.769 609.261 317.569 609.261C320.029 609.261 322.069 608.621 323.699 607.351C325.329 606.081 326.359 604.341 326.779 602.141H334.469C333.749 606.251 331.909 609.511 328.939 611.921C325.979 614.331 322.229 615.541 317.699 615.541C314.309 615.541 311.319 614.821 308.709 613.381C306.109 611.941 304.059 609.871 302.579 607.151C301.099 604.441 300.359 601.241 300.359 597.561C300.359 593.921 301.099 590.741 302.579 588.031C304.059 585.321 306.109 583.251 308.709 581.801C311.309 580.361 314.309 579.641 317.699 579.641C322.229 579.661 325.979 580.861 328.939 583.251Z" fill="#080908"/>
<path d="M369.85 583.251C372.81 585.641 374.65 588.891 375.37 593.001H367.69C367.27 590.801 366.24 589.071 364.61 587.821C362.98 586.571 360.94 585.951 358.48 585.951C355.68 585.951 353.35 586.941 351.49 588.901C349.63 590.871 348.7 593.761 348.7 597.571C348.7 601.381 349.63 604.281 351.49 606.271C353.35 608.261 355.68 609.261 358.48 609.261C360.93 609.261 362.98 608.621 364.61 607.351C366.24 606.081 367.27 604.341 367.69 602.141H375.37C374.65 606.251 372.81 609.511 369.85 611.921C366.89 614.331 363.14 615.541 358.61 615.541C355.22 615.541 352.23 614.821 349.62 613.381C347.02 611.941 344.97 609.871 343.49 607.151C342.01 604.441 341.27 601.241 341.27 597.561C341.27 593.921 342.01 590.741 343.49 588.031C344.97 585.321 347.02 583.251 349.62 581.801C352.22 580.361 355.22 579.641 358.61 579.641C363.14 579.661 366.89 580.861 369.85 583.251Z" fill="#080908"/>
<path d="M416.221 580.113V615.113H408.911V607.493C408.021 610.073 406.481 612.073 404.271 613.493C402.071 614.913 399.511 615.623 396.591 615.623C392.521 615.623 389.261 614.313 386.811 611.683C384.351 609.063 383.131 605.313 383.131 600.443V580.123H390.371V599.683C390.371 602.863 391.171 605.303 392.781 607.023C394.391 608.733 396.591 609.593 399.391 609.593C402.271 609.593 404.581 608.663 406.311 606.803C408.051 604.943 408.911 602.233 408.911 598.673V580.123H416.221V580.113Z" fill="#080908"/>
<path d="M438.83 581.543C441.03 580.213 443.57 579.543 446.45 579.543V587.423H444.29C441.11 587.423 438.56 588.193 436.63 589.743C434.7 591.293 433.74 593.843 433.74 597.393V615.113H426.5V580.113H433.74V586.973C434.93 584.683 436.62 582.873 438.83 581.543Z" fill="#080908"/>
<path d="M475.6 582.01C477.84 583.58 479.43 585.65 480.36 588.24V580.11H487.6V615.11H480.36V606.98C479.43 609.56 477.84 611.64 475.6 613.21C473.35 614.78 470.65 615.56 467.47 615.56C464.42 615.56 461.7 614.84 459.31 613.4C456.92 611.96 455.04 609.89 453.69 607.17C452.33 604.46 451.66 601.26 451.66 597.58C451.66 593.94 452.34 590.76 453.69 588.05C455.04 585.34 456.92 583.27 459.31 581.82C461.7 580.38 464.42 579.66 467.47 579.66C470.65 579.66 473.36 580.45 475.6 582.01ZM461.98 589.1C460.05 591.16 459.09 593.98 459.09 597.58C459.09 601.18 460.05 604.01 461.98 606.06C463.91 608.11 466.48 609.14 469.7 609.14C471.73 609.14 473.55 608.66 475.16 607.71C476.77 606.76 478.04 605.41 478.97 603.68C479.9 601.94 480.37 599.91 480.37 597.58C480.37 595.29 479.9 593.27 478.97 591.51C478.04 589.75 476.77 588.4 475.16 587.45C473.55 586.5 471.73 586.02 469.7 586.02C466.48 586.02 463.91 587.04 461.98 589.1Z" fill="#080908"/>
<path d="M515.49 608.82V615.11H511.04C507.31 615.11 504.49 614.21 502.56 612.41C500.63 610.61 499.67 607.61 499.67 603.42V586.27H494.65V580.11H499.67V571.41H506.97V580.11H515.42V586.27H506.97V603.55C506.97 605.54 507.34 606.92 508.08 607.68C508.82 608.44 510.12 608.82 511.99 608.82H515.49Z" fill="#080908"/>
<path d="M556.14 599.04H529.21C529.34 602.64 530.33 605.31 532.2 607.04C534.06 608.78 536.37 609.65 539.12 609.65C541.53 609.65 543.58 609.04 545.25 607.81C546.92 606.58 547.95 604.95 548.33 602.92H556.08C555.61 605.38 554.64 607.56 553.16 609.46C551.68 611.37 549.75 612.86 547.38 613.94C545.01 615.02 542.36 615.56 539.44 615.56C536.05 615.56 533.06 614.84 530.45 613.4C527.85 611.96 525.8 609.89 524.32 607.17C522.84 604.46 522.1 601.26 522.1 597.58C522.1 593.94 522.84 590.76 524.32 588.05C525.8 585.34 527.85 583.27 530.45 581.82C533.05 580.38 536.05 579.66 539.44 579.66C542.87 579.66 545.87 580.37 548.43 581.79C550.99 583.21 552.96 585.16 554.34 587.63C555.72 590.11 556.4 592.87 556.4 595.92C556.39 597.11 556.31 598.15 556.14 599.04ZM547.92 589.99C547.05 588.44 545.86 587.3 544.36 586.56C542.86 585.82 541.22 585.45 539.44 585.45C536.6 585.45 534.23 586.32 532.33 588.05C530.42 589.79 529.39 592.35 529.22 595.73H549.1C549.17 593.45 548.78 591.53 547.92 589.99Z" fill="#080908"/>
<path d="M630.14 599.04H603.21C603.34 602.64 604.33 605.31 606.2 607.04C608.06 608.78 610.37 609.65 613.12 609.65C615.53 609.65 617.58 609.04 619.25 607.81C620.92 606.58 621.95 604.95 622.33 602.92H630.08C629.61 605.38 628.64 607.56 627.16 609.46C625.68 611.37 623.75 612.86 621.38 613.94C619.01 615.02 616.36 615.56 613.44 615.56C610.05 615.56 607.06 614.84 604.45 613.4C601.85 611.96 599.8 609.89 598.32 607.17C596.84 604.46 596.1 601.26 596.1 597.58C596.1 593.94 596.84 590.76 598.32 588.05C599.8 585.34 601.85 583.27 604.45 581.82C607.05 580.38 610.05 579.66 613.44 579.66C616.87 579.66 619.87 580.37 622.43 581.79C624.99 583.21 626.96 585.16 628.34 587.63C629.71 590.11 630.4 592.87 630.4 595.92C630.39 597.11 630.3 598.15 630.14 599.04ZM621.91 589.99C621.04 588.44 619.85 587.3 618.35 586.56C616.85 585.82 615.21 585.45 613.43 585.45C610.59 585.45 608.22 586.32 606.32 588.05C604.41 589.79 603.38 592.35 603.21 595.73H623.09C623.17 593.45 622.78 591.53 621.91 589.99Z" fill="#080908"/>
<path d="M649.321 574.232C648.181 575.272 647.611 577.042 647.611 579.532V580.102H655.301V586.332H647.611V615.102H640.311V586.332H635.551V580.102H640.311V578.962C640.311 574.682 641.561 571.482 644.061 569.342C646.561 567.202 650.311 566.262 655.301 566.512V572.862C652.451 572.742 650.461 573.202 649.321 574.232Z" fill="#080908"/>
<path d="M673.071 574.232C671.931 575.272 671.361 577.042 671.361 579.532V580.102H679.051V586.332H671.361V615.102H664.061V586.332H659.301V580.102H664.061V578.962C664.061 574.682 665.311 571.482 667.811 569.342C670.311 567.202 674.061 566.262 679.051 566.512V572.862C676.211 572.742 674.211 573.202 673.071 574.232Z" fill="#080908"/>
<path d="M718.739 599.04H691.809C691.939 602.64 692.929 605.31 694.799 607.04C696.659 608.78 698.969 609.65 701.719 609.65C704.129 609.65 706.179 609.04 707.849 607.81C709.519 606.58 710.549 604.95 710.929 602.92H718.679C718.209 605.38 717.239 607.56 715.759 609.46C714.279 611.37 712.349 612.86 709.979 613.94C707.609 615.02 704.959 615.56 702.039 615.56C698.649 615.56 695.659 614.84 693.049 613.4C690.449 611.96 688.399 609.89 686.919 607.17C685.439 604.46 684.699 601.26 684.699 597.58C684.699 593.94 685.439 590.76 686.919 588.05C688.399 585.34 690.449 583.27 693.049 581.82C695.649 580.38 698.649 579.66 702.039 579.66C705.469 579.66 708.469 580.37 711.029 581.79C713.589 583.21 715.559 585.16 716.939 587.63C718.319 590.11 718.999 592.87 718.999 595.92C718.999 597.11 718.909 598.15 718.739 599.04ZM710.519 589.99C709.649 588.44 708.459 587.3 706.959 586.56C705.459 585.82 703.819 585.45 702.039 585.45C699.199 585.45 696.829 586.32 694.929 588.05C693.019 589.79 691.989 592.35 691.819 595.73H711.699C711.779 593.45 711.379 591.53 710.519 589.99Z" fill="#080908"/>
<path d="M754.369 583.251C757.329 585.641 759.179 588.891 759.899 593.001H752.219C751.799 590.801 750.769 589.071 749.139 587.821C747.509 586.571 745.469 585.951 743.009 585.951C740.219 585.951 737.889 586.941 736.019 588.901C734.159 590.871 733.229 593.761 733.229 597.571C733.229 601.381 734.159 604.281 736.019 606.271C737.879 608.261 740.209 609.261 743.009 609.261C745.469 609.261 747.509 608.621 749.139 607.351C750.769 606.081 751.799 604.341 752.219 602.141H759.899C759.179 606.251 757.339 609.511 754.369 611.921C751.409 614.331 747.659 615.541 743.129 615.541C739.739 615.541 736.749 614.821 734.139 613.381C731.539 611.941 729.489 609.871 728.009 607.151C726.529 604.441 725.789 601.241 725.789 597.561C725.789 593.921 726.529 590.741 728.009 588.031C729.489 585.321 731.539 583.251 734.139 581.801C736.739 580.361 739.739 579.641 743.129 579.641C747.659 579.661 751.409 580.861 754.369 583.251Z" fill="#080908"/>
<path d="M786.07 608.82V615.11H781.62C777.89 615.11 775.071 614.21 773.141 612.41C771.211 610.61 770.25 607.61 770.25 603.42V586.27H765.23V580.11H770.25V571.41H777.55V580.11H786V586.27H777.55V603.55C777.55 605.54 777.921 606.92 778.661 607.68C779.401 608.44 780.7 608.82 782.57 608.82H786.07Z" fill="#080908"/>
<path d="M794.7 566.901C795.55 566.101 796.67 565.691 798.07 565.691C799.47 565.691 800.6 566.091 801.47 566.901C802.34 567.701 802.77 568.721 802.77 569.951C802.77 571.181 802.34 572.171 801.47 572.931C800.6 573.691 799.47 574.071 798.07 574.071C796.67 574.071 795.55 573.691 794.7 572.931C793.85 572.171 793.43 571.171 793.43 569.951C793.43 568.721 793.86 567.701 794.7 566.901ZM801.69 580.111V615.111H794.45V580.111H801.69Z" fill="#080908"/>
<path d="M826.399 607.613L836.309 580.113H844.059L830.719 615.113H821.949L808.609 580.113H816.359L826.399 607.613Z" fill="#080908"/>
<path d="M883.251 599.04H856.321C856.451 602.64 857.441 605.31 859.311 607.04C861.171 608.78 863.481 609.65 866.231 609.65C868.641 609.65 870.691 609.04 872.361 607.81C874.031 606.58 875.061 604.95 875.441 602.92H883.191C882.721 605.38 881.751 607.56 880.271 609.46C878.791 611.37 876.861 612.86 874.491 613.94C872.121 615.02 869.471 615.56 866.551 615.56C863.161 615.56 860.171 614.84 857.561 613.4C854.961 611.96 852.911 609.89 851.431 607.17C849.951 604.46 849.211 601.26 849.211 597.58C849.211 593.94 849.951 590.76 851.431 588.05C852.911 585.34 854.961 583.27 857.561 581.82C860.161 580.38 863.161 579.66 866.551 579.66C869.981 579.66 872.981 580.37 875.541 581.79C878.101 583.21 880.071 585.16 881.451 587.63C882.821 590.11 883.511 592.87 883.511 595.92C883.501 597.11 883.421 598.15 883.251 599.04ZM875.021 589.99C874.151 588.44 872.961 587.3 871.461 586.56C869.961 585.82 868.321 585.45 866.541 585.45C863.701 585.45 861.331 586.32 859.431 588.05C857.521 589.79 856.491 592.35 856.321 595.73H876.201C876.281 593.45 875.891 591.53 875.021 589.99Z" fill="#080908"/>
<path d="M561.529 622.882C562.889 617.652 564.189 612.412 565.669 607.212C565.829 606.642 566.899 606.042 567.599 605.982C569.399 605.812 571.229 605.922 573.819 605.922C571.299 611.732 569.259 616.962 566.709 621.932C566.129 623.062 563.799 623.282 562.269 623.922C562.019 623.572 561.769 623.232 561.529 622.882Z" fill="#080908"/>
<path d="M224.869 622.882C226.229 617.652 227.529 612.412 229.009 607.212C229.169 606.642 230.239 606.042 230.939 605.982C232.739 605.812 234.569 605.922 237.159 605.922C234.639 611.732 232.599 616.962 230.049 621.932C229.469 623.062 227.139 623.282 225.609 623.922C225.359 623.572 225.109 623.232 224.869 622.882Z" fill="#080908"/>
</svg>
