<svg width="1168" height="296" viewBox="0 0 1168 296" fill="none" xmlns="http://www.w3.org/2000/svg">
<path d="M47.0027 180.557C46.6543 180.89 46.3446 181.169 46.0505 181.471C35.2899 192.619 24.4442 203.689 13.8153 214.96C10.022 218.986 5.98871 223.089 3.39534 227.881C-2.62747 239.028 -0.188917 249.766 7.1809 259.465C14.8371 269.553 25.1409 276.365 36.4589 281.683C53.8847 289.866 72.3557 294.039 91.4847 295.44C112.557 296.98 133.11 294.341 152.355 285.469C172.228 276.311 185.303 261.618 186.503 238.587C187.083 227.362 184.142 217.05 177.972 207.761C172.011 198.788 163.944 191.906 154.91 186.147C135.998 174.101 115.39 165.276 95.6341 154.825C84.502 148.934 73.4008 142.919 62.7099 136.269C54.9298 131.423 47.9626 125.292 43.039 117.341C36.9466 107.51 36.1182 97.2058 40.794 86.5304C43.8519 79.5554 49.0851 74.6241 55.3092 70.5057C61.8197 66.1937 68.2218 61.7192 74.6704 57.3143C74.5543 57.0589 74.4304 56.8111 74.3143 56.5557C73.7724 56.5324 73.215 56.4008 72.6964 56.4937C59.118 58.9478 46.0892 62.8494 34.2835 70.3354C19.6987 79.5863 10.711 92.4835 8.54337 109.646C7.03379 121.607 9.48008 132.847 16.2383 143.081C24.1113 154.988 34.9416 163.658 47.142 170.408C68.547 182.245 90.3545 193.354 111.953 204.85C123.782 211.144 135.549 217.608 144.242 228.213C151.697 237.317 154.02 247.644 150.374 258.931C147.169 268.856 140.209 275.722 131.005 280.151C120.143 285.376 108.555 286.754 96.5554 285.902C80.6081 284.764 66.2478 279.547 54.0473 269.251C43.4416 260.309 36.9234 249.053 37.1324 234.654C37.2717 224.738 41.3592 216.392 47.4362 208.93C52.8474 202.288 58.5606 195.893 64.1731 189.344C58.576 186.472 52.9094 183.577 47.0027 180.557Z" fill="#103454"/>
<path d="M70.9305 129.498C69.4364 114.17 71.5266 100.29 80.3672 88.0429C89.1305 75.9122 100.611 67.5824 115.366 64.5865C140.681 59.4385 167.326 70.1138 180.061 95.1341C187.33 109.425 188.275 124.435 183.258 139.694C178.242 154.944 167.845 165.736 153.779 173.81C159.337 176.434 162.813 181.466 168.341 182.875C170.384 181.559 172.196 180.382 174.007 179.213C175.509 180.568 177.073 181.652 178.188 183.084C179.287 184.501 179.906 186.281 180.781 187.868C181.145 188.519 181.571 189.169 182.082 189.703C187.005 194.774 191.952 199.821 196.914 204.853C200.576 208.569 204.16 212.378 207.992 215.908C212.141 219.724 218.722 219.391 222.36 215.459C226.122 211.394 226.161 204.597 222.406 200.742C220.943 199.24 219.418 197.801 217.909 196.345C211.359 190.036 204.864 183.665 198.215 177.472C196.086 175.49 193.647 173.771 191.131 172.308C187.245 170.048 186.455 167.57 188.971 163.916C201.814 145.283 204.717 124.768 200.367 102.961C198.826 95.2579 195.613 88.1513 191.271 81.7492C203.045 69.6494 214.681 57.6812 226.486 45.5427C231.317 51.8442 236.039 58.0218 240.947 64.4317C245.29 42.9028 249.579 21.6527 253.953 0C232.532 5.9454 211.615 11.7514 190.14 17.7123C197.487 22.063 204.276 26.0808 211.816 30.5398C199.732 42.1132 188.143 53.2066 176.446 64.4084C176.283 64.2923 175.811 63.9517 175.346 63.6033C163.696 54.7627 150.62 49.1966 136.082 47.7489C117.689 45.9142 100.712 50.203 85.3682 60.7545C67.1527 73.2801 57.1508 90.7602 53.9304 112.366C53.791 113.295 54.1162 114.627 54.7432 115.285C58.7997 119.535 62.9646 123.692 67.1991 127.764C67.9888 128.523 69.2661 128.755 70.9305 129.498Z" fill="#103454"/>
<path d="M129.387 70.4429C128.993 70.2803 128.845 70.1642 128.691 70.1565C105.528 68.9333 83.984 84.6793 78.3405 107.168C77.4348 110.799 77.3883 114.646 77.0322 118.401C76.9084 119.74 77.698 120.599 79.0373 120.228C79.8888 119.996 81.0036 119.345 81.2591 118.625C81.7468 117.232 81.6461 115.637 81.9016 114.151C85.5091 93.3884 102.099 77.8127 121.112 75.2425C123.914 74.8632 126.74 74.6697 129.782 74.3678C129.635 72.9124 129.503 71.6196 129.387 70.4429Z" fill="#103454"/>
<path d="M283.953 153.156L293.163 134.096C301.673 139.376 314.603 142.946 326.303 142.946C339.063 142.946 343.843 139.716 343.843 134.606C343.843 119.636 286.253 134.946 286.253 98.3656C286.253 81.0056 302.553 68.7656 330.373 68.7656C343.483 68.7656 358.013 71.6556 367.053 76.7656L357.843 95.6556C348.453 90.5556 339.063 88.8456 330.373 88.8456C317.973 88.8456 312.653 92.5856 312.653 97.3556C312.653 113.006 370.243 97.8656 370.243 133.936C370.243 150.946 353.763 163.026 325.233 163.026C309.113 163.016 292.813 158.766 283.953 153.156Z" fill="black"/>
<path d="M383.883 115.896C383.883 88.3356 406.033 68.7656 437.043 68.7656C457.063 68.7656 472.833 77.1056 479.743 92.0756L458.303 103.136C453.163 94.4556 445.543 90.5456 436.863 90.5456C422.863 90.5456 411.883 99.9056 411.883 115.896C411.883 131.886 422.873 141.246 436.863 141.246C445.543 141.246 453.163 137.506 458.303 128.656L479.743 139.886C472.833 154.516 457.063 163.026 437.043 163.026C406.033 163.016 383.883 143.456 383.883 115.896Z" fill="black"/>
<path d="M491.072 115.896C491.072 88.3356 513.222 68.7656 543.522 68.7656C573.822 68.7656 595.792 88.3356 595.792 115.896C595.792 143.456 573.822 163.026 543.522 163.026C513.222 163.016 491.072 143.456 491.072 115.896ZM567.802 115.896C567.802 100.076 557.352 90.5456 543.522 90.5456C529.702 90.5456 519.072 100.076 519.072 115.896C519.072 131.716 529.702 141.246 543.522 141.246C557.342 141.246 567.802 131.716 567.802 115.896Z" fill="black"/>
<path d="M677.123 68.7656V93.2656C674.823 93.0956 673.053 92.9256 670.923 92.9256C655.683 92.9256 645.583 100.926 645.583 118.446V161.666H617.943V70.1256H644.343V82.2056C651.073 73.3556 662.413 68.7656 677.123 68.7656Z" fill="black"/>
<path d="M789.284 123.376H717.164C719.824 134.776 729.924 141.746 744.454 141.746C754.554 141.746 761.824 138.856 768.374 132.896L783.084 148.206C774.224 157.906 760.934 163.006 743.744 163.006C710.784 163.006 689.344 143.096 689.344 115.876C689.344 88.4861 711.134 68.7461 740.204 68.7461C768.204 68.7461 789.814 86.7761 789.814 116.216C789.814 118.276 789.464 121.166 789.284 123.376ZM716.814 107.896H763.774C761.824 96.3261 752.784 88.8361 740.384 88.8361C727.794 88.8361 718.764 96.1561 716.814 107.896Z" fill="black"/>
<path d="M831.624 35.7656V161.666H811.424V35.7656H831.624Z" fill="black"/>
<path d="M949.802 118.616H874.672C875.022 128.256 877.802 135.406 883.002 140.056C888.202 144.706 894.632 147.036 902.312 147.036C909.042 147.036 914.742 145.396 919.412 142.106C924.072 138.816 926.942 134.446 928.002 129.006H949.612C948.312 135.586 945.592 141.426 941.462 146.526C937.322 151.626 931.952 155.626 925.342 158.526C918.722 161.416 911.342 162.866 903.192 162.866C893.742 162.866 885.382 160.936 878.122 157.076C870.862 153.226 865.152 147.666 861.022 140.406C856.882 133.146 854.822 124.586 854.822 114.716C854.822 104.966 856.892 96.4561 861.022 89.1961C865.152 81.9361 870.862 76.3761 878.122 72.5261C885.382 68.6761 893.742 66.7461 903.192 66.7461C912.762 66.7461 921.112 68.6461 928.262 72.4461C935.412 76.2461 940.902 81.4661 944.742 88.0961C948.582 94.7361 950.502 102.136 950.502 110.296C950.512 113.456 950.272 116.236 949.802 118.616ZM926.852 94.3761C924.432 90.2361 921.122 87.1761 916.932 85.1861C912.742 83.2061 908.162 82.2061 903.202 82.2061C895.282 82.2061 888.672 84.5361 883.362 89.1861C878.042 93.8361 875.152 100.696 874.682 109.776H930.142C930.372 103.646 929.272 98.5161 926.852 94.3761Z" fill="black"/>
<path d="M1055.58 76.9367C1062.43 83.9667 1065.86 94.0067 1065.86 107.047V161.657H1045.66V109.087C1045.66 100.697 1043.41 94.1967 1038.93 89.6067C1034.44 85.0167 1028.3 82.7167 1020.5 82.7167C1012.47 82.7167 1006.03 85.1867 1001.19 90.1167C996.353 95.0467 993.923 102.277 993.923 111.807V161.657H973.723V67.9167H993.923V88.5067C996.523 81.4767 1000.89 76.0267 1007.03 72.1767C1013.17 68.3267 1020.26 66.3867 1028.29 66.3867C1039.63 66.3867 1048.72 69.9067 1055.58 76.9367Z" fill="black"/>
<path d="M1152.76 75.147C1159.67 80.757 1163.89 88.277 1165.43 97.687H1146.29C1145.46 92.587 1143.19 88.477 1139.47 85.357C1135.75 82.237 1130.82 80.677 1124.68 80.677C1119.6 80.677 1115.67 81.837 1112.9 84.167C1110.12 86.497 1108.74 89.637 1108.74 93.607C1108.74 96.557 1109.74 98.937 1111.75 100.757C1113.76 102.577 1116.27 103.987 1119.28 105.007C1122.29 106.027 1126.57 107.157 1132.13 108.407C1139.45 109.997 1145.39 111.637 1149.94 113.337C1154.49 115.037 1158.38 117.737 1161.63 121.417C1164.88 125.107 1166.5 130.127 1166.5 136.477C1166.5 144.307 1163.4 150.657 1157.2 155.527C1151 160.407 1142.64 162.847 1132.13 162.847C1119.96 162.847 1110.13 160.127 1102.63 154.677C1095.13 149.237 1090.61 141.637 1089.07 131.877H1108.74C1109.33 136.977 1111.69 141.127 1115.83 144.297C1119.96 147.477 1125.4 149.057 1132.13 149.057C1136.97 149.057 1140.78 147.837 1143.56 145.397C1146.34 142.957 1147.72 139.867 1147.72 136.127C1147.72 132.837 1146.66 130.227 1144.53 128.297C1142.4 126.367 1139.75 124.867 1136.56 123.787C1133.37 122.707 1129 121.607 1123.45 120.467C1116.36 118.877 1110.6 117.297 1106.17 115.707C1101.74 114.117 1097.96 111.537 1094.83 107.967C1091.7 104.397 1090.14 99.547 1090.14 93.417C1090.14 85.477 1093.24 79.037 1099.44 74.107C1105.64 69.177 1114.23 66.707 1125.22 66.707C1136.66 66.727 1145.85 69.537 1152.76 75.147Z" fill="black"/>
<path d="M283.953 153.156L293.163 134.096C301.673 139.376 314.603 142.946 326.303 142.946C339.063 142.946 343.843 139.716 343.843 134.606C343.843 119.636 286.253 134.946 286.253 98.3656C286.253 81.0056 302.553 68.7656 330.373 68.7656C343.483 68.7656 358.013 71.6556 367.053 76.7656L357.843 95.6556C348.453 90.5556 339.063 88.8456 330.373 88.8456C317.973 88.8456 312.653 92.5856 312.653 97.3556C312.653 113.006 370.243 97.8656 370.243 133.936C370.243 150.946 353.763 163.026 325.233 163.026C309.113 163.016 292.813 158.766 283.953 153.156Z" fill="#103454"/>
<path d="M383.883 115.896C383.883 88.3356 406.033 68.7656 437.043 68.7656C457.063 68.7656 472.833 77.1056 479.743 92.0756L458.303 103.136C453.163 94.4556 445.543 90.5456 436.863 90.5456C422.863 90.5456 411.883 99.9056 411.883 115.896C411.883 131.886 422.873 141.246 436.863 141.246C445.543 141.246 453.163 137.506 458.303 128.656L479.743 139.886C472.833 154.516 457.063 163.026 437.043 163.026C406.033 163.016 383.883 143.456 383.883 115.896Z" fill="#103454"/>
<path d="M491.072 115.896C491.072 88.3356 513.222 68.7656 543.522 68.7656C573.822 68.7656 595.792 88.3356 595.792 115.896C595.792 143.456 573.822 163.026 543.522 163.026C513.222 163.016 491.072 143.456 491.072 115.896ZM567.802 115.896C567.802 100.076 557.352 90.5456 543.522 90.5456C529.702 90.5456 519.072 100.076 519.072 115.896C519.072 131.716 529.702 141.246 543.522 141.246C557.342 141.246 567.802 131.716 567.802 115.896Z" fill="#103454"/>
<path d="M677.123 68.7656V93.2656C674.823 93.0956 673.053 92.9256 670.923 92.9256C655.683 92.9256 645.583 100.926 645.583 118.446V161.666H617.943V70.1256H644.343V82.2056C651.073 73.3556 662.413 68.7656 677.123 68.7656Z" fill="#103454"/>
<path d="M789.284 123.376H717.164C719.824 134.776 729.924 141.746 744.454 141.746C754.554 141.746 761.824 138.856 768.374 132.896L783.084 148.206C774.224 157.906 760.934 163.006 743.744 163.006C710.784 163.006 689.344 143.096 689.344 115.876C689.344 88.4861 711.134 68.7461 740.204 68.7461C768.204 68.7461 789.814 86.7761 789.814 116.216C789.814 118.276 789.464 121.166 789.284 123.376ZM716.814 107.896H763.774C761.824 96.3261 752.784 88.8361 740.384 88.8361C727.794 88.8361 718.764 96.1561 716.814 107.896Z" fill="#103454"/>
<path d="M831.624 35.7656V161.666H811.424V35.7656H831.624Z" fill="#103454"/>
<path d="M949.802 118.616H874.672C875.022 128.256 877.802 135.406 883.002 140.056C888.202 144.706 894.632 147.036 902.312 147.036C909.042 147.036 914.742 145.396 919.412 142.106C924.072 138.816 926.942 134.446 928.002 129.006H949.612C948.312 135.586 945.592 141.426 941.462 146.526C937.322 151.626 931.952 155.626 925.342 158.526C918.722 161.416 911.342 162.866 903.192 162.866C893.742 162.866 885.382 160.936 878.122 157.076C870.862 153.226 865.152 147.666 861.022 140.406C856.882 133.146 854.822 124.586 854.822 114.716C854.822 104.966 856.892 96.4561 861.022 89.1961C865.152 81.9361 870.862 76.3761 878.122 72.5261C885.382 68.6761 893.742 66.7461 903.192 66.7461C912.762 66.7461 921.112 68.6461 928.262 72.4461C935.412 76.2461 940.902 81.4661 944.742 88.0961C948.582 94.7361 950.502 102.136 950.502 110.296C950.512 113.456 950.272 116.236 949.802 118.616ZM926.852 94.3761C924.432 90.2361 921.122 87.1761 916.932 85.1861C912.742 83.2061 908.162 82.2061 903.202 82.2061C895.282 82.2061 888.672 84.5361 883.362 89.1861C878.042 93.8361 875.152 100.696 874.682 109.776H930.142C930.372 103.646 929.272 98.5161 926.852 94.3761Z" fill="#103454"/>
<path d="M1055.58 76.9367C1062.43 83.9667 1065.86 94.0067 1065.86 107.047V161.657H1045.66V109.087C1045.66 100.697 1043.41 94.1967 1038.93 89.6067C1034.44 85.0167 1028.3 82.7167 1020.5 82.7167C1012.47 82.7167 1006.03 85.1867 1001.19 90.1167C996.353 95.0467 993.923 102.277 993.923 111.807V161.657H973.723V67.9167H993.923V88.5067C996.523 81.4767 1000.89 76.0267 1007.03 72.1767C1013.17 68.3267 1020.26 66.3867 1028.29 66.3867C1039.63 66.3867 1048.72 69.9067 1055.58 76.9367Z" fill="#103454"/>
<path d="M1152.76 75.147C1159.67 80.757 1163.89 88.277 1165.43 97.687H1146.29C1145.46 92.587 1143.19 88.477 1139.47 85.357C1135.75 82.237 1130.82 80.677 1124.68 80.677C1119.6 80.677 1115.67 81.837 1112.9 84.167C1110.12 86.497 1108.74 89.637 1108.74 93.607C1108.74 96.557 1109.74 98.937 1111.75 100.757C1113.76 102.577 1116.27 103.987 1119.28 105.007C1122.29 106.027 1126.57 107.157 1132.13 108.407C1139.45 109.997 1145.39 111.637 1149.94 113.337C1154.49 115.037 1158.38 117.737 1161.63 121.417C1164.88 125.107 1166.5 130.127 1166.5 136.477C1166.5 144.307 1163.4 150.657 1157.2 155.527C1151 160.407 1142.64 162.847 1132.13 162.847C1119.96 162.847 1110.13 160.127 1102.63 154.677C1095.13 149.237 1090.61 141.637 1089.07 131.877H1108.74C1109.33 136.977 1111.69 141.127 1115.83 144.297C1119.96 147.477 1125.4 149.057 1132.13 149.057C1136.97 149.057 1140.78 147.837 1143.56 145.397C1146.34 142.957 1147.72 139.867 1147.72 136.127C1147.72 132.837 1146.66 130.227 1144.53 128.297C1142.4 126.367 1139.75 124.867 1136.56 123.787C1133.37 122.707 1129 121.607 1123.45 120.467C1116.36 118.877 1110.6 117.297 1106.17 115.707C1101.74 114.117 1097.96 111.537 1094.83 107.967C1091.7 104.397 1090.14 99.547 1090.14 93.417C1090.14 85.477 1093.24 79.037 1099.44 74.107C1105.64 69.177 1114.23 66.707 1125.22 66.707C1136.66 66.727 1145.85 69.537 1152.76 75.147Z" fill="#103454"/>
<path d="M306.783 211.148C309.263 213.248 310.773 216.048 311.323 219.568H304.463C304.163 217.658 303.353 216.128 302.013 214.958C300.683 213.798 298.913 213.208 296.713 213.208C294.893 213.208 293.483 213.638 292.493 214.508C291.493 215.378 291.003 216.548 291.003 218.038C291.003 219.138 291.363 220.028 292.083 220.708C292.803 221.388 293.703 221.918 294.783 222.298C295.863 222.678 297.393 223.098 299.383 223.568C302.003 224.158 304.133 224.778 305.763 225.408C307.393 226.038 308.793 227.048 309.953 228.428C311.113 229.808 311.703 231.678 311.703 234.048C311.703 236.968 310.593 239.338 308.373 241.158C306.153 242.978 303.153 243.888 299.383 243.888C295.023 243.888 291.493 242.868 288.813 240.838C286.123 238.808 284.503 235.968 283.953 232.328H291.003C291.213 234.238 292.063 235.778 293.543 236.968C295.023 238.158 296.973 238.748 299.383 238.748C301.123 238.748 302.483 238.298 303.483 237.378C304.473 236.468 304.973 235.318 304.973 233.918C304.973 232.688 304.593 231.718 303.833 230.998C303.073 230.278 302.123 229.718 300.973 229.318C299.833 228.918 298.263 228.498 296.273 228.078C293.733 227.488 291.663 226.888 290.083 226.298C288.503 225.708 287.143 224.738 286.023 223.408C284.903 222.078 284.343 220.268 284.343 217.978C284.343 215.018 285.453 212.608 287.673 210.768C289.893 208.928 292.973 208.008 296.913 208.008C301.013 207.998 304.303 209.048 306.783 211.148Z" fill="#080908"/>
<path d="M320.793 195.237C321.643 194.437 322.763 194.027 324.163 194.027C325.563 194.027 326.693 194.427 327.563 195.237C328.433 196.037 328.863 197.057 328.863 198.287C328.863 199.517 328.423 200.507 327.563 201.267C326.693 202.027 325.563 202.407 324.163 202.407C322.763 202.407 321.643 202.027 320.793 201.267C319.943 200.507 319.523 199.507 319.523 198.287C319.523 197.057 319.943 196.037 320.793 195.237ZM327.773 208.447V243.447H320.533V208.447H327.773Z" fill="#080908"/>
<path d="M391.833 211.819C394.313 214.449 395.553 218.189 395.553 223.059V243.449H388.313V223.819C388.313 220.769 387.553 218.409 386.023 216.739C384.503 215.069 382.403 214.229 379.733 214.229C376.893 214.229 374.643 215.129 372.973 216.929C371.303 218.729 370.463 221.369 370.463 224.839V243.449H363.223V223.819C363.223 220.769 362.463 218.409 360.933 216.739C359.413 215.069 357.313 214.229 354.643 214.229C351.803 214.229 349.553 215.129 347.873 216.929C346.203 218.729 345.363 221.369 345.363 224.839V243.449H338.123V208.449H345.363V215.749C346.253 213.209 347.733 211.259 349.813 209.909C351.883 208.559 354.323 207.879 357.113 207.879C360.033 207.879 362.563 208.599 364.703 210.039C366.843 211.479 368.393 213.549 369.373 216.259C370.393 213.639 372.023 211.579 374.263 210.099C376.503 208.619 379.043 207.879 381.883 207.879C386.043 207.879 389.353 209.189 391.833 211.819Z" fill="#080908"/>
<path d="M433.814 210.156C436.204 211.596 438.084 213.666 439.434 216.386C440.794 219.096 441.464 222.276 441.464 225.916C441.464 229.596 440.784 232.796 439.434 235.506C438.074 238.216 436.204 240.286 433.814 241.736C431.424 243.176 428.704 243.896 425.654 243.896C422.474 243.896 419.764 243.116 417.524 241.546C415.274 239.976 413.714 237.906 412.824 235.316V260.086H405.584V208.446H412.824V216.576C413.714 213.996 415.284 211.916 417.524 210.346C419.764 208.776 422.474 207.996 425.654 207.996C428.704 207.996 431.424 208.716 433.814 210.156ZM417.974 215.786C416.364 216.736 415.094 218.096 414.164 219.846C413.234 221.606 412.764 223.626 412.764 225.916C412.764 228.246 413.234 230.276 414.164 232.016C415.094 233.756 416.364 235.096 417.974 236.046C419.584 236.996 421.404 237.476 423.434 237.476C426.654 237.476 429.234 236.446 431.184 234.396C433.134 232.346 434.104 229.516 434.104 225.916C434.104 222.356 433.134 219.546 431.184 217.466C429.234 215.396 426.654 214.356 423.434 214.356C421.404 214.356 419.584 214.826 417.974 215.786Z" fill="#080908"/>
<path d="M457.283 196.438V243.438H450.043V196.438H457.283Z" fill="#080908"/>
<path d="M499.903 227.376H472.973C473.103 230.976 474.093 233.646 475.963 235.376C477.823 237.116 480.133 237.986 482.883 237.986C485.293 237.986 487.343 237.376 489.013 236.146C490.683 234.916 491.713 233.286 492.093 231.256H499.843C499.373 233.716 498.403 235.896 496.923 237.796C495.443 239.706 493.513 241.196 491.143 242.276C488.773 243.356 486.123 243.896 483.203 243.896C479.813 243.896 476.823 243.176 474.213 241.736C471.613 240.296 469.563 238.226 468.083 235.506C466.603 232.796 465.863 229.596 465.863 225.916C465.863 222.276 466.603 219.096 468.083 216.386C469.563 213.676 471.613 211.606 474.213 210.156C476.813 208.716 479.813 207.996 483.203 207.996C486.633 207.996 489.633 208.706 492.193 210.126C494.753 211.546 496.723 213.496 498.103 215.966C499.473 218.446 500.163 221.206 500.163 224.256C500.163 225.446 500.073 226.486 499.903 227.376ZM491.683 218.326C490.813 216.776 489.633 215.636 488.123 214.896C486.623 214.156 484.983 213.786 483.203 213.786C480.363 213.786 477.993 214.656 476.093 216.386C474.183 218.126 473.153 220.686 472.983 224.066H492.863C492.943 221.786 492.543 219.866 491.683 218.326Z" fill="#080908"/>
<path d="M563.803 210.346C566.043 211.916 567.633 213.986 568.563 216.576V208.446H575.803V243.446H568.563V235.316C567.633 237.896 566.043 239.976 563.803 241.546C561.553 243.116 558.853 243.896 555.673 243.896C552.623 243.896 549.903 243.176 547.513 241.736C545.123 240.296 543.243 238.226 541.893 235.506C540.533 232.796 539.863 229.596 539.863 225.916C539.863 222.276 540.543 219.096 541.893 216.386C543.253 213.676 545.123 211.606 547.513 210.156C549.903 208.716 552.623 207.996 555.673 207.996C558.843 207.996 561.553 208.786 563.803 210.346ZM550.173 217.436C548.243 219.496 547.283 222.316 547.283 225.916C547.283 229.516 548.243 232.346 550.173 234.396C552.103 236.446 554.673 237.476 557.893 237.476C559.923 237.476 561.743 236.996 563.353 236.046C564.963 235.096 566.233 233.746 567.163 232.016C568.093 230.276 568.563 228.246 568.563 225.916C568.563 223.626 568.093 221.606 567.163 219.846C566.233 218.086 564.963 216.736 563.353 215.786C561.743 214.836 559.923 214.356 557.893 214.356C554.673 214.356 552.103 215.376 550.173 217.436Z" fill="#080908"/>
<path d="M612.892 211.587C615.852 213.977 617.702 217.227 618.422 221.337H610.732C610.312 219.137 609.282 217.407 607.652 216.157C606.022 214.907 603.982 214.287 601.522 214.287C598.732 214.287 596.403 215.277 594.533 217.237C592.673 219.207 591.742 222.097 591.742 225.907C591.742 229.717 592.673 232.617 594.533 234.607C596.393 236.597 598.722 237.597 601.522 237.597C603.982 237.597 606.022 236.957 607.652 235.687C609.282 234.417 610.312 232.677 610.732 230.477H618.422C617.702 234.587 615.862 237.847 612.892 240.257C609.932 242.667 606.182 243.877 601.652 243.877C598.262 243.877 595.272 243.157 592.662 241.717C590.062 240.277 588.013 238.207 586.533 235.487C585.053 232.777 584.312 229.577 584.312 225.897C584.312 222.257 585.053 219.077 586.533 216.367C588.013 213.657 590.062 211.587 592.662 210.137C595.262 208.697 598.262 207.977 601.652 207.977C606.182 207.997 609.932 209.197 612.892 211.587Z" fill="#080908"/>
<path d="M653.803 211.587C656.763 213.977 658.603 217.227 659.323 221.337H651.643C651.223 219.137 650.193 217.407 648.563 216.157C646.933 214.907 644.893 214.287 642.433 214.287C639.633 214.287 637.303 215.277 635.443 217.237C633.583 219.207 632.653 222.097 632.653 225.907C632.653 229.717 633.583 232.617 635.443 234.607C637.303 236.597 639.633 237.597 642.433 237.597C644.883 237.597 646.933 236.957 648.563 235.687C650.193 234.417 651.223 232.677 651.643 230.477H659.323C658.603 234.587 656.763 237.847 653.803 240.257C650.843 242.667 647.093 243.877 642.563 243.877C639.173 243.877 636.183 243.157 633.573 241.717C630.973 240.277 628.923 238.207 627.443 235.487C625.963 232.777 625.223 229.577 625.223 225.897C625.223 222.257 625.963 219.077 627.443 216.367C628.923 213.657 630.973 211.587 633.573 210.137C636.173 208.697 639.173 207.977 642.563 207.977C647.093 207.997 650.843 209.197 653.803 211.587Z" fill="#080908"/>
<path d="M700.174 208.449V243.449H692.864V235.829C691.974 238.409 690.434 240.409 688.224 241.829C686.024 243.249 683.464 243.959 680.544 243.959C676.474 243.959 673.214 242.649 670.764 240.019C668.304 237.399 667.084 233.649 667.084 228.779V208.459H674.324V228.019C674.324 231.199 675.124 233.639 676.734 235.359C678.344 237.069 680.544 237.929 683.344 237.929C686.224 237.929 688.534 236.999 690.264 235.139C692.004 233.279 692.864 230.569 692.864 227.009V208.459H700.174V208.449Z" fill="#080908"/>
<path d="M722.783 209.879C724.983 208.549 727.523 207.879 730.403 207.879V215.759H728.243C725.063 215.759 722.513 216.529 720.583 218.079C718.653 219.629 717.693 222.179 717.693 225.729V243.449H710.453V208.449H717.693V215.309C718.883 213.019 720.573 211.209 722.783 209.879Z" fill="#080908"/>
<path d="M759.553 210.346C761.793 211.916 763.383 213.986 764.313 216.576V208.446H771.553V243.446H764.313V235.316C763.383 237.896 761.793 239.976 759.553 241.546C757.303 243.116 754.603 243.896 751.423 243.896C748.373 243.896 745.653 243.176 743.263 241.736C740.873 240.296 738.993 238.226 737.643 235.506C736.283 232.796 735.613 229.596 735.613 225.916C735.613 222.276 736.293 219.096 737.643 216.386C738.993 213.676 740.873 211.606 743.263 210.156C745.653 208.716 748.373 207.996 751.423 207.996C754.603 207.996 757.313 208.786 759.553 210.346ZM745.933 217.436C744.003 219.496 743.043 222.316 743.043 225.916C743.043 229.516 744.003 232.346 745.933 234.396C747.863 236.446 750.433 237.476 753.653 237.476C755.683 237.476 757.503 236.996 759.113 236.046C760.723 235.096 761.993 233.746 762.923 232.016C763.853 230.276 764.323 228.246 764.323 225.916C764.323 223.626 763.853 221.606 762.923 219.846C761.993 218.086 760.723 216.736 759.113 215.786C757.503 214.836 755.683 214.356 753.653 214.356C750.433 214.356 747.863 215.376 745.933 217.436Z" fill="#080908"/>
<path d="M799.443 237.156V243.446H794.993C791.263 243.446 788.443 242.546 786.513 240.746C784.583 238.946 783.623 235.946 783.623 231.756V214.606H778.604V208.446H783.623V199.746H790.924V208.446H799.373V214.606H790.924V231.886C790.924 233.876 791.294 235.256 792.034 236.016C792.774 236.776 794.073 237.156 795.943 237.156H799.443Z" fill="#080908"/>
<path d="M840.093 227.376H813.163C813.293 230.976 814.283 233.646 816.153 235.376C818.013 237.116 820.323 237.986 823.073 237.986C825.483 237.986 827.533 237.376 829.203 236.146C830.873 234.916 831.903 233.286 832.283 231.256H840.033C839.563 233.716 838.593 235.896 837.113 237.796C835.633 239.706 833.703 241.196 831.333 242.276C828.963 243.356 826.313 243.896 823.393 243.896C820.003 243.896 817.013 243.176 814.403 241.736C811.803 240.296 809.753 238.226 808.273 235.506C806.793 232.796 806.053 229.596 806.053 225.916C806.053 222.276 806.793 219.096 808.273 216.386C809.753 213.676 811.803 211.606 814.403 210.156C817.003 208.716 820.003 207.996 823.393 207.996C826.823 207.996 829.823 208.706 832.383 210.126C834.943 211.546 836.913 213.496 838.293 215.966C839.673 218.446 840.353 221.206 840.353 224.256C840.343 225.446 840.263 226.486 840.093 227.376ZM831.873 218.326C831.003 216.776 829.813 215.636 828.313 214.896C826.813 214.156 825.173 213.786 823.393 213.786C820.553 213.786 818.183 214.656 816.283 216.386C814.373 218.126 813.343 220.686 813.173 224.066H833.053C833.123 221.786 832.733 219.866 831.873 218.326Z" fill="#080908"/>
<path d="M914.093 227.376H887.163C887.293 230.976 888.283 233.646 890.153 235.376C892.013 237.116 894.323 237.986 897.073 237.986C899.483 237.986 901.533 237.376 903.203 236.146C904.873 234.916 905.903 233.286 906.283 231.256H914.033C913.563 233.716 912.593 235.896 911.113 237.796C909.633 239.706 907.703 241.196 905.333 242.276C902.963 243.356 900.313 243.896 897.393 243.896C894.003 243.896 891.013 243.176 888.403 241.736C885.803 240.296 883.753 238.226 882.273 235.506C880.793 232.796 880.053 229.596 880.053 225.916C880.053 222.276 880.793 219.096 882.273 216.386C883.753 213.676 885.803 211.606 888.403 210.156C891.003 208.716 894.003 207.996 897.393 207.996C900.823 207.996 903.823 208.706 906.383 210.126C908.943 211.546 910.913 213.496 912.293 215.966C913.663 218.446 914.353 221.206 914.353 224.256C914.343 225.446 914.253 226.486 914.093 227.376ZM905.863 218.326C904.993 216.776 903.803 215.636 902.303 214.896C900.803 214.156 899.163 213.786 897.383 213.786C894.543 213.786 892.173 214.656 890.273 216.386C888.363 218.126 887.333 220.686 887.163 224.066H907.043C907.123 221.786 906.733 219.866 905.863 218.326Z" fill="#080908"/>
<path d="M933.274 202.568C932.134 203.608 931.564 205.378 931.564 207.868V208.438H939.254V214.668H931.564V243.438H924.264V214.668H919.504V208.438H924.264V207.298C924.264 203.018 925.514 199.818 928.014 197.678C930.514 195.538 934.264 194.598 939.254 194.848V201.198C936.404 201.078 934.414 201.538 933.274 202.568Z" fill="#080908"/>
<path d="M957.024 202.568C955.884 203.608 955.314 205.378 955.314 207.868V208.438H963.004V214.668H955.314V243.438H948.014V214.668H943.254V208.438H948.014V207.298C948.014 203.018 949.264 199.818 951.764 197.678C954.264 195.538 958.014 194.598 963.004 194.848V201.198C960.164 201.078 958.164 201.538 957.024 202.568Z" fill="#080908"/>
<path d="M1002.69 227.376H975.762C975.892 230.976 976.882 233.646 978.752 235.376C980.612 237.116 982.922 237.986 985.672 237.986C988.082 237.986 990.132 237.376 991.802 236.146C993.472 234.916 994.502 233.286 994.882 231.256H1002.63C1002.16 233.716 1001.19 235.896 999.712 237.796C998.232 239.706 996.302 241.196 993.932 242.276C991.562 243.356 988.912 243.896 985.992 243.896C982.602 243.896 979.612 243.176 977.002 241.736C974.402 240.296 972.352 238.226 970.872 235.506C969.392 232.796 968.652 229.596 968.652 225.916C968.652 222.276 969.392 219.096 970.872 216.386C972.352 213.676 974.402 211.606 977.002 210.156C979.602 208.716 982.602 207.996 985.992 207.996C989.422 207.996 992.422 208.706 994.982 210.126C997.542 211.546 999.512 213.496 1000.89 215.966C1002.27 218.446 1002.95 221.206 1002.95 224.256C1002.95 225.446 1002.86 226.486 1002.69 227.376ZM994.472 218.326C993.602 216.776 992.412 215.636 990.912 214.896C989.412 214.156 987.772 213.786 985.992 213.786C983.152 213.786 980.782 214.656 978.882 216.386C976.972 218.126 975.942 220.686 975.772 224.066H995.652C995.732 221.786 995.332 219.866 994.472 218.326Z" fill="#080908"/>
<path d="M1038.32 211.587C1041.28 213.977 1043.13 217.227 1043.85 221.337H1036.17C1035.75 219.137 1034.72 217.407 1033.09 216.157C1031.46 214.907 1029.42 214.287 1026.96 214.287C1024.17 214.287 1021.84 215.277 1019.97 217.237C1018.11 219.207 1017.18 222.097 1017.18 225.907C1017.18 229.717 1018.11 232.617 1019.97 234.607C1021.83 236.597 1024.16 237.597 1026.96 237.597C1029.42 237.597 1031.46 236.957 1033.09 235.687C1034.72 234.417 1035.75 232.677 1036.17 230.477H1043.85C1043.13 234.587 1041.29 237.847 1038.32 240.257C1035.36 242.667 1031.61 243.877 1027.08 243.877C1023.69 243.877 1020.7 243.157 1018.09 241.717C1015.49 240.277 1013.44 238.207 1011.96 235.487C1010.48 232.777 1009.74 229.577 1009.74 225.897C1009.74 222.257 1010.48 219.077 1011.96 216.367C1013.44 213.657 1015.49 211.587 1018.09 210.137C1020.69 208.697 1023.69 207.977 1027.08 207.977C1031.61 207.997 1035.36 209.197 1038.32 211.587Z" fill="#080908"/>
<path d="M1070.02 237.156V243.446H1065.57C1061.84 243.446 1059.02 242.546 1057.09 240.746C1055.16 238.946 1054.2 235.946 1054.2 231.756V214.606H1049.18V208.446H1054.2V199.746H1061.5V208.446H1069.95V214.606H1061.5V231.886C1061.5 233.876 1061.87 235.256 1062.61 236.016C1063.35 236.776 1064.65 237.156 1066.52 237.156H1070.02Z" fill="#080908"/>
<path d="M1078.65 195.237C1079.5 194.437 1080.62 194.027 1082.02 194.027C1083.42 194.027 1084.55 194.427 1085.42 195.237C1086.29 196.037 1086.72 197.057 1086.72 198.287C1086.72 199.517 1086.29 200.507 1085.42 201.267C1084.55 202.027 1083.42 202.407 1082.02 202.407C1080.62 202.407 1079.5 202.027 1078.65 201.267C1077.8 200.507 1077.38 199.507 1077.38 198.287C1077.38 197.057 1077.81 196.037 1078.65 195.237ZM1085.64 208.447V243.447H1078.4V208.447H1085.64Z" fill="#080908"/>
<path d="M1110.35 235.949L1120.26 208.449H1128.01L1114.67 243.449H1105.9L1092.56 208.449H1100.31L1110.35 235.949Z" fill="#080908"/>
<path d="M1167.2 227.376H1140.27C1140.4 230.976 1141.39 233.646 1143.26 235.376C1145.12 237.116 1147.43 237.986 1150.18 237.986C1152.59 237.986 1154.64 237.376 1156.31 236.146C1157.98 234.916 1159.01 233.286 1159.39 231.256H1167.14C1166.67 233.716 1165.7 235.896 1164.22 237.796C1162.74 239.706 1160.81 241.196 1158.44 242.276C1156.07 243.356 1153.42 243.896 1150.5 243.896C1147.11 243.896 1144.12 243.176 1141.51 241.736C1138.91 240.296 1136.86 238.226 1135.38 235.506C1133.9 232.796 1133.16 229.596 1133.16 225.916C1133.16 222.276 1133.9 219.096 1135.38 216.386C1136.86 213.676 1138.91 211.606 1141.51 210.156C1144.11 208.716 1147.11 207.996 1150.5 207.996C1153.93 207.996 1156.93 208.706 1159.49 210.126C1162.05 211.546 1164.02 213.496 1165.4 215.966C1166.77 218.446 1167.46 221.206 1167.46 224.256C1167.45 225.446 1167.37 226.486 1167.2 227.376ZM1158.97 218.326C1158.1 216.776 1156.91 215.636 1155.41 214.896C1153.91 214.156 1152.27 213.786 1150.49 213.786C1147.65 213.786 1145.28 214.656 1143.38 216.386C1141.47 218.126 1140.44 220.686 1140.27 224.066H1160.15C1160.23 221.786 1159.84 219.866 1158.97 218.326Z" fill="#080908"/>
<path d="M845.482 251.218C846.842 245.988 848.142 240.748 849.622 235.548C849.782 234.978 850.852 234.378 851.552 234.318C853.352 234.148 855.182 234.258 857.772 234.258C855.252 240.068 853.212 245.298 850.662 250.268C850.082 251.398 847.752 251.618 846.222 252.258C845.972 251.908 845.722 251.568 845.482 251.218Z" fill="#080908"/>
<path d="M508.822 251.218C510.182 245.988 511.482 240.748 512.962 235.548C513.122 234.978 514.192 234.378 514.892 234.318C516.692 234.148 518.522 234.258 521.112 234.258C518.592 240.068 516.552 245.298 514.002 250.268C513.422 251.398 511.092 251.618 509.562 252.258C509.312 251.908 509.062 251.568 508.822 251.218Z" fill="#080908"/>
</svg>
